<svg
  width="54"
  height="44"
  viewBox="0 0 54 44"
  fill="none"
  xmlns="http://www.w3.org/2000/svg"
>
  <rect x="0.267578" width="53" height="44" rx="4" fill="white" />
  <path
    d="M11.2305 33.9277L8.91016 41H7.04102L10.2109 32.4688H11.4004L11.2305 33.9277ZM13.1582 41L10.832 33.9277L10.6445 32.4688H11.8457L15.0332 41H13.1582ZM13.0527 37.8242V39.2012H8.54688V37.8242H13.0527ZM18.3379 39.7988C18.5449 39.7988 18.7285 39.7598 18.8887 39.6816C19.0488 39.5996 19.1738 39.4863 19.2637 39.3418C19.3574 39.1934 19.4062 39.0195 19.4102 38.8203H20.998C20.9941 39.2656 20.875 39.6621 20.6406 40.0098C20.4062 40.3535 20.0918 40.625 19.6973 40.8242C19.3027 41.0195 18.8613 41.1172 18.373 41.1172C17.8809 41.1172 17.4512 41.0352 17.084 40.8711C16.7207 40.707 16.418 40.4805 16.1758 40.1914C15.9336 39.8984 15.752 39.5586 15.6309 39.1719C15.5098 38.7812 15.4492 38.3633 15.4492 37.918V37.748C15.4492 37.2988 15.5098 36.8809 15.6309 36.4941C15.752 36.1035 15.9336 35.7637 16.1758 35.4746C16.418 35.1816 16.7207 34.9531 17.084 34.7891C17.4473 34.625 17.873 34.543 18.3613 34.543C18.8809 34.543 19.3359 34.6426 19.7266 34.8418C20.1211 35.041 20.4297 35.3262 20.6523 35.6973C20.8789 36.0645 20.9941 36.5 20.998 37.0039H19.4102C19.4062 36.793 19.3613 36.6016 19.2754 36.4297C19.1934 36.2578 19.0723 36.1211 18.9121 36.0195C18.7559 35.9141 18.5625 35.8613 18.332 35.8613C18.0859 35.8613 17.8848 35.9141 17.7285 36.0195C17.5723 36.1211 17.4512 36.2617 17.3652 36.4414C17.2793 36.6172 17.2188 36.8184 17.1836 37.0449C17.1523 37.2676 17.1367 37.502 17.1367 37.748V37.918C17.1367 38.1641 17.1523 38.4004 17.1836 38.627C17.2148 38.8535 17.2734 39.0547 17.3594 39.2305C17.4492 39.4062 17.5723 39.5449 17.7285 39.6465C17.8848 39.748 18.0879 39.7988 18.3379 39.7988ZM24.5957 39.7988C24.8027 39.7988 24.9863 39.7598 25.1465 39.6816C25.3066 39.5996 25.4316 39.4863 25.5215 39.3418C25.6152 39.1934 25.6641 39.0195 25.668 38.8203H27.2559C27.252 39.2656 27.1328 39.6621 26.8984 40.0098C26.6641 40.3535 26.3496 40.625 25.9551 40.8242C25.5605 41.0195 25.1191 41.1172 24.6309 41.1172C24.1387 41.1172 23.709 41.0352 23.3418 40.8711C22.9785 40.707 22.6758 40.4805 22.4336 40.1914C22.1914 39.8984 22.0098 39.5586 21.8887 39.1719C21.7676 38.7812 21.707 38.3633 21.707 37.918V37.748C21.707 37.2988 21.7676 36.8809 21.8887 36.4941C22.0098 36.1035 22.1914 35.7637 22.4336 35.4746C22.6758 35.1816 22.9785 34.9531 23.3418 34.7891C23.7051 34.625 24.1309 34.543 24.6191 34.543C25.1387 34.543 25.5938 34.6426 25.9844 34.8418C26.3789 35.041 26.6875 35.3262 26.9102 35.6973C27.1367 36.0645 27.252 36.5 27.2559 37.0039H25.668C25.6641 36.793 25.6191 36.6016 25.5332 36.4297C25.4512 36.2578 25.3301 36.1211 25.1699 36.0195C25.0137 35.9141 24.8203 35.8613 24.5898 35.8613C24.3438 35.8613 24.1426 35.9141 23.9863 36.0195C23.8301 36.1211 23.709 36.2617 23.623 36.4414C23.5371 36.6172 23.4766 36.8184 23.4414 37.0449C23.4102 37.2676 23.3945 37.502 23.3945 37.748V37.918C23.3945 38.1641 23.4102 38.4004 23.4414 38.627C23.4727 38.8535 23.5312 39.0547 23.6172 39.2305C23.707 39.4062 23.8301 39.5449 23.9863 39.6465C24.1426 39.748 24.3457 39.7988 24.5957 39.7988ZM31.9844 39.4824V34.6602H33.6719V41H32.084L31.9844 39.4824ZM32.1719 38.1816L32.6699 38.1699C32.6699 38.5918 32.6211 38.9844 32.5234 39.3477C32.4258 39.707 32.2793 40.0195 32.084 40.2852C31.8887 40.5469 31.6426 40.752 31.3457 40.9004C31.0488 41.0449 30.6992 41.1172 30.2969 41.1172C29.9883 41.1172 29.7031 41.0742 29.4414 40.9883C29.1836 40.8984 28.9609 40.7598 28.7734 40.5723C28.5898 40.3809 28.4453 40.1367 28.3398 39.8398C28.2383 39.5391 28.1875 39.1777 28.1875 38.7559V34.6602H29.875V38.7676C29.875 38.9551 29.8965 39.1133 29.9395 39.2422C29.9863 39.3711 30.0508 39.4766 30.1328 39.5586C30.2148 39.6406 30.3105 39.6992 30.4199 39.7344C30.5332 39.7695 30.6582 39.7871 30.7949 39.7871C31.1426 39.7871 31.416 39.7168 31.6152 39.5762C31.8184 39.4355 31.9609 39.2441 32.043 39.002C32.1289 38.7559 32.1719 38.4824 32.1719 38.1816ZM37.8789 41.1172C37.3867 41.1172 36.9453 41.0391 36.5547 40.8828C36.1641 40.7227 35.832 40.502 35.5586 40.2207C35.2891 39.9395 35.082 39.6133 34.9375 39.2422C34.793 38.8672 34.7207 38.4688 34.7207 38.0469V37.8125C34.7207 37.332 34.7891 36.8926 34.9258 36.4941C35.0625 36.0957 35.2578 35.75 35.5117 35.457C35.7695 35.1641 36.082 34.9395 36.4492 34.7832C36.8164 34.623 37.2305 34.543 37.6914 34.543C38.1406 34.543 38.5391 34.6172 38.8867 34.7656C39.2344 34.9141 39.5254 35.125 39.7598 35.3984C39.998 35.6719 40.1777 36 40.2988 36.3828C40.4199 36.7617 40.4805 37.1836 40.4805 37.6484V38.3516H35.4414V37.2266H38.8223V37.0977C38.8223 36.8633 38.7793 36.6543 38.6934 36.4707C38.6113 36.2832 38.4863 36.1348 38.3184 36.0254C38.1504 35.916 37.9355 35.8613 37.6738 35.8613C37.4512 35.8613 37.2598 35.9102 37.0996 36.0078C36.9395 36.1055 36.8086 36.2422 36.707 36.418C36.6094 36.5938 36.5352 36.8008 36.4844 37.0391C36.4375 37.2734 36.4141 37.5312 36.4141 37.8125V38.0469C36.4141 38.3008 36.4492 38.5352 36.5195 38.75C36.5938 38.9648 36.6973 39.1504 36.8301 39.3066C36.9668 39.4629 37.1309 39.584 37.3223 39.6699C37.5176 39.7559 37.7383 39.7988 37.9844 39.7988C38.2891 39.7988 38.5723 39.7402 38.834 39.623C39.0996 39.502 39.3281 39.3203 39.5195 39.0781L40.3398 39.9688C40.207 40.1602 40.0254 40.3438 39.7949 40.5195C39.5684 40.6953 39.2949 40.8398 38.9746 40.9531C38.6543 41.0625 38.2891 41.1172 37.8789 41.1172ZM43.2227 34.6602V41H41.5293V34.6602H43.2227ZM41.4238 33.0078C41.4238 32.7617 41.5098 32.5586 41.6816 32.3984C41.8535 32.2383 42.084 32.1582 42.373 32.1582C42.6582 32.1582 42.8867 32.2383 43.0586 32.3984C43.2344 32.5586 43.3223 32.7617 43.3223 33.0078C43.3223 33.2539 43.2344 33.457 43.0586 33.6172C42.8867 33.7773 42.6582 33.8574 42.373 33.8574C42.084 33.8574 41.8535 33.7773 41.6816 33.6172C41.5098 33.457 41.4238 33.2539 41.4238 33.0078ZM46.3984 32V41H44.7051V32H46.3984Z"
    fill="#455A94"
  />
  <path
    d="M13.2396 16.1493L25.5327 3.6762C26.425 2.77088 27.8863 2.77517 28.7732 3.68571L40.7461 15.9772C41.1031 16.3437 41.0808 16.9346 40.6972 17.2732C40.3408 17.5878 39.8006 17.5686 39.4674 17.2294L26.9902 4.52751L14.4257 17.3176C14.1006 17.6485 13.5679 17.6497 13.2413 17.3203C12.9202 16.9963 12.9195 16.4741 13.2396 16.1493Z"
    fill="#455A94"
  />
  <path
    d="M17.1997 17.1686L25.4433 8.35411C26.3451 7.38988 27.8759 7.39625 28.7697 8.36794L36.8643 17.1686V24.7298C36.8643 25.9836 35.8484 27 34.5953 27H30.4733V19.4388C30.4733 18.185 29.4574 17.1686 28.2043 17.1686H25.8597C24.6066 17.1686 23.5907 18.185 23.5907 19.4388V27H19.4687C18.2156 27 17.1997 25.9836 17.1997 24.7298V17.1686Z"
    fill="#455A94"
  />
</svg>
