<svg width="53" height="44" viewBox="0 0 53 44" fill="none" xmlns="http://www.w3.org/2000/svg">
<rect width="53" height="44" rx="4" fill="white"/>
<path fill-rule="evenodd" clip-rule="evenodd" d="M32.1582 12.7949C32.1582 16.1573 29.3399 18.8831 25.8634 18.8831C22.3869 18.8831 19.5687 16.1573 19.5687 12.7949C19.5687 9.43245 22.3869 6.70666 25.8634 6.70666C29.3399 6.70666 32.1582 9.43245 32.1582 12.7949ZM25.8634 17.8243C28.7353 17.8243 31.0634 15.5726 31.0634 12.7949C31.0634 10.0172 28.7353 7.76548 25.8634 7.76548C22.9915 7.76548 20.6634 10.0172 20.6634 12.7949C20.6634 15.5726 22.9915 17.8243 25.8634 17.8243Z" fill="#4F6874"/>
<path fill-rule="evenodd" clip-rule="evenodd" d="M26.432 9.71433L22.6001 13.4201C21.5056 14.4789 23.6949 17.3907 25.3366 16.0673C25.3366 16.0673 28.3474 13.1554 29.1684 12.3613C30.5368 11.038 27.8003 8.39104 26.432 9.71433ZM26.9789 10.7731L25.6109 12.0969L26.7056 13.1558L28.0736 11.8319C28.3473 11.3025 27.7999 10.5084 26.9789 10.7731ZM24.7908 15.0116C24.2424 15.5381 23.1477 14.4793 23.6949 13.9495L25.0635 12.6302L26.1571 13.6858C26.1571 13.6858 24.9024 14.9045 24.7908 15.0116Z" fill="#4F6874"/>
<path d="M22.3053 21.5294H27.7789C28.3263 21.5294 28.3263 21.2647 28.3263 20.7353C28.3263 20.2497 28.3263 19.9412 27.7789 19.9412H22.3053C21.7579 19.9412 21.7579 20.3118 21.7579 20.7353C21.7579 21 21.7579 21.5294 22.3053 21.5294Z" fill="#4F6874"/>
<path d="M23.4 23.6471H28.8737C29.4211 23.6471 29.4211 23.3824 29.4211 22.8529C29.4211 22.3673 29.4211 22.0588 28.8737 22.0588H23.4C22.8526 22.0588 22.8526 22.4294 22.8526 22.8529C22.8526 23.1176 22.8526 23.6471 23.4 23.6471Z" fill="#4F6874"/>
<path d="M30.5158 20.7353C30.5158 21.1739 30.1482 21.5294 29.6947 21.5294C29.2413 21.5294 28.8737 21.1739 28.8737 20.7353C28.8737 20.2967 29.2413 19.9412 29.6947 19.9412C30.1482 19.9412 30.5158 20.2967 30.5158 20.7353Z" fill="#4F6874"/>
<path fill-rule="evenodd" clip-rule="evenodd" d="M32.1582 12.7949C32.1582 16.1573 29.3399 18.8831 25.8634 18.8831C22.3869 18.8831 19.5687 16.1573 19.5687 12.7949C19.5687 9.43245 22.3869 6.70666 25.8634 6.70666C29.3399 6.70666 32.1582 9.43245 32.1582 12.7949ZM22.3053 21.5294H27.7789C28.3263 21.5294 28.3263 21.2647 28.3263 20.7353C28.3263 20.2497 28.3263 19.9412 27.7789 19.9412H22.3053C21.7579 19.9412 21.7579 20.3118 21.7579 20.7353C21.7579 21 21.7579 21.5294 22.3053 21.5294ZM23.4 23.6471H28.8737C29.4211 23.6471 29.4211 23.3824 29.4211 22.8529C29.4211 22.3673 29.4211 22.0588 28.8737 22.0588H23.4C22.8526 22.0588 22.8526 22.4294 22.8526 22.8529C22.8526 23.1176 22.8526 23.6471 23.4 23.6471ZM30.5158 20.7353C30.5158 21.1739 30.1482 21.5294 29.6947 21.5294C29.2413 21.5294 28.8737 21.1739 28.8737 20.7353C28.8737 20.2967 29.2413 19.9412 29.6947 19.9412C30.1482 19.9412 30.5158 20.2967 30.5158 20.7353ZM31.0634 12.7949C31.0634 15.5726 28.7353 17.8243 25.8634 17.8243C22.9915 17.8243 20.6634 15.5726 20.6634 12.7949C20.6634 10.0172 22.9915 7.76548 25.8634 7.76548C28.7353 7.76548 31.0634 10.0172 31.0634 12.7949ZM22.6001 13.4201L26.432 9.71433C27.8003 8.39104 30.5368 11.038 29.1684 12.3613C28.3474 13.1554 25.3366 16.0673 25.3366 16.0673C23.6949 17.3907 21.5056 14.4789 22.6001 13.4201ZM26.9789 10.7731L25.6109 12.0969L26.7056 13.1558L28.0736 11.8319C28.3473 11.3025 27.7999 10.5084 26.9789 10.7731ZM23.6949 13.9495C23.1477 14.4793 24.2424 15.5381 24.7908 15.0116C24.9024 14.9045 26.1571 13.6858 26.1571 13.6858L25.0635 12.6302L23.6949 13.9495Z" fill="#4F6874"/>
<path fill-rule="evenodd" clip-rule="evenodd" d="M13 4.32353C13.0002 5.11687 13.0005 28.1471 13 28.9412C12.9995 29.7353 13.5471 30 14.3684 30H34.8947C35.9892 30 35.9897 28.9412 35.9895 28.1471C35.9894 27.9918 35.9894 27.0171 35.9894 25.5434C35.9895 24.5692 35.9895 23.3768 35.9895 22.0588H37.9053C38.2702 22.0588 39 21.8471 39 21V7.23529C39 6.70588 38.7263 5.64706 37.6316 5.64706H35.9895L35.9895 4.32353C35.9895 3.52941 35.4421 3 34.8947 3L33.7743 3.00004C29.5384 3.0002 14.8432 3.00075 14.3684 3C13.8213 2.99914 12.9998 3.53019 13 4.32353ZM35.9894 6.71935H37.0842C37.2667 6.71486 37.6316 6.81176 37.6316 7.23529V10.4118C37.6316 10.5882 37.5221 10.9412 37.0842 10.9412H35.9894L35.9894 6.71935ZM35.9894 12H37.0842C37.4146 12 37.6316 12.3176 37.6316 12.5294V15.1765C37.6316 15.3529 37.5221 15.7059 37.0842 15.7059H35.9894L35.9894 12ZM35.9894 17.2941H37.0842C37.2667 17.2941 37.6316 17.4 37.6316 17.8235V20.4706C37.6316 20.6471 37.5221 21 37.0842 21H35.9894L35.9894 17.2941ZM33.9045 4.0596C34.3998 4.0596 34.895 4.54749 34.895 5.27932L34.895 6.71935C34.8949 10.4672 34.8948 20.4493 34.8949 24.9714H17.3792V4.0599C21.3486 4.06008 29.9347 4.05975 32.8907 4.05964L33.9045 4.0596ZM32.1582 12.7949C32.1582 16.1573 29.3399 18.8831 25.8634 18.8831C22.3869 18.8831 19.5687 16.1573 19.5687 12.7949C19.5687 9.43245 22.3869 6.70666 25.8634 6.70666C29.3399 6.70666 32.1582 9.43245 32.1582 12.7949ZM22.3053 21.5294H27.7789C28.3263 21.5294 28.3263 21.2647 28.3263 20.7353C28.3263 20.2497 28.3263 19.9412 27.7789 19.9412H22.3053C21.7579 19.9412 21.7579 20.3118 21.7579 20.7353C21.7579 21 21.7579 21.5294 22.3053 21.5294ZM23.4 23.6471H28.8737C29.4211 23.6471 29.4211 23.3824 29.4211 22.8529C29.4211 22.3673 29.4211 22.0588 28.8737 22.0588H23.4C22.8526 22.0588 22.8526 22.4294 22.8526 22.8529C22.8526 23.1176 22.8526 23.6471 23.4 23.6471ZM30.5158 20.7353C30.5158 21.1739 30.1482 21.5294 29.6947 21.5294C29.2413 21.5294 28.8737 21.1739 28.8737 20.7353C28.8737 20.2967 29.2413 19.9412 29.6947 19.9412C30.1482 19.9412 30.5158 20.2967 30.5158 20.7353ZM31.0634 12.7949C31.0634 15.5726 28.7353 17.8243 25.8634 17.8243C22.9915 17.8243 20.6634 15.5726 20.6634 12.7949C20.6634 10.0172 22.9915 7.76548 25.8634 7.76548C28.7353 7.76548 31.0634 10.0172 31.0634 12.7949ZM22.6001 13.4201L26.432 9.71433C27.8003 8.39104 30.5368 11.038 29.1684 12.3613C28.3474 13.1554 25.3366 16.0673 25.3366 16.0673C23.6949 17.3907 21.5056 14.4789 22.6001 13.4201ZM24.7908 15.0116C24.2424 15.5381 23.1477 14.4793 23.6949 13.9495L25.0635 12.6302L26.1571 13.6858C26.1571 13.6858 24.9024 14.9045 24.7908 15.0116ZM25.6109 12.0969L26.9789 10.7731C27.7999 10.5084 28.3473 11.3025 28.0736 11.8319L26.7056 13.1558L25.6109 12.0969ZM33.9045 28.942C34.8947 28.942 34.8952 27.9662 34.895 27.2343C34.895 27.1521 34.8949 26.8202 34.8949 26.2949H15.7371C15.1897 26.2949 14.095 26.7151 14.095 27.3537C14.095 27.6307 14.095 27.7654 14.095 27.8441C14.095 27.9049 14.095 27.9323 14.095 27.9662C14.0945 28.698 14.59 28.942 15.3331 28.942H33.9045ZM15.3331 4.0596C14.8381 4.0588 14.0948 4.15167 14.095 4.88279C14.0952 5.4835 13.9725 20.0684 13.9723 25.6047C14.2356 25.3911 15.0859 24.9714 15.7371 24.9714L15.6497 4.0599C15.4627 4.05987 15.3945 4.05973 15.3549 4.05964C15.3467 4.05963 15.3397 4.05961 15.3331 4.0596Z" fill="#4F6874"/>
<path d="M15.0645 35.1064L13.1309 41H11.5732L14.2148 33.8906H15.2061L15.0645 35.1064ZM16.6709 41L14.7324 35.1064L14.5762 33.8906H15.5771L18.2334 41H16.6709ZM16.583 38.3535V39.501H12.8281V38.3535H16.583ZM20.2109 36.8691V41H18.8047V35.7168H20.1279L20.2109 36.8691ZM21.8027 35.6826L21.7783 36.9863C21.71 36.9766 21.627 36.9684 21.5293 36.9619C21.4349 36.9521 21.3486 36.9473 21.2705 36.9473C21.0719 36.9473 20.8994 36.9733 20.7529 37.0254C20.6097 37.0742 20.4893 37.1475 20.3916 37.2451C20.2972 37.3428 20.2256 37.4616 20.1768 37.6016C20.1312 37.7415 20.1051 37.901 20.0986 38.0801L19.8154 37.9922C19.8154 37.6504 19.8496 37.3363 19.918 37.0498C19.9863 36.7601 20.0856 36.5078 20.2158 36.293C20.3493 36.0781 20.512 35.9121 20.7041 35.7949C20.8962 35.6777 21.1159 35.6191 21.3633 35.6191C21.4414 35.6191 21.5212 35.6257 21.6025 35.6387C21.6839 35.6484 21.7507 35.6631 21.8027 35.6826ZM25.2988 35.7168V36.7129H22.2227V35.7168H25.2988ZM22.9844 34.4131H24.3906V39.4082C24.3906 39.5612 24.4102 39.6784 24.4492 39.7598C24.4915 39.8411 24.5534 39.8981 24.6348 39.9307C24.7161 39.96 24.8187 39.9746 24.9424 39.9746C25.0303 39.9746 25.1084 39.9714 25.1768 39.9648C25.2484 39.9551 25.3086 39.9453 25.3574 39.9355L25.3623 40.9707C25.2419 41.0098 25.1117 41.0407 24.9717 41.0635C24.8317 41.0863 24.6771 41.0977 24.5078 41.0977C24.1986 41.0977 23.9284 41.0472 23.6973 40.9463C23.4694 40.8421 23.2936 40.6761 23.1699 40.4482C23.0462 40.2204 22.9844 39.9209 22.9844 39.5498V34.4131ZM27.584 35.7168V41H26.1729V35.7168H27.584ZM26.085 34.3398C26.085 34.1348 26.1566 33.9655 26.2998 33.832C26.443 33.6986 26.6351 33.6318 26.876 33.6318C27.1136 33.6318 27.304 33.6986 27.4473 33.832C27.5938 33.9655 27.667 34.1348 27.667 34.3398C27.667 34.5449 27.5938 34.7142 27.4473 34.8477C27.304 34.9811 27.1136 35.0479 26.876 35.0479C26.6351 35.0479 26.443 34.9811 26.2998 34.8477C26.1566 34.7142 26.085 34.5449 26.085 34.3398ZM30.9287 39.999C31.1012 39.999 31.2542 39.9665 31.3877 39.9014C31.5212 39.833 31.6253 39.7386 31.7002 39.6182C31.7783 39.4945 31.819 39.3496 31.8223 39.1836H33.1455C33.1423 39.5547 33.043 39.8851 32.8477 40.1748C32.6523 40.4613 32.3903 40.6875 32.0615 40.8535C31.7327 41.0163 31.3649 41.0977 30.958 41.0977C30.5479 41.0977 30.1898 41.0293 29.8838 40.8926C29.5811 40.7559 29.3288 40.5671 29.127 40.3262C28.9251 40.082 28.7738 39.7988 28.6729 39.4766C28.5719 39.151 28.5215 38.8027 28.5215 38.4316V38.29C28.5215 37.9157 28.5719 37.5674 28.6729 37.2451C28.7738 36.9196 28.9251 36.6364 29.127 36.3955C29.3288 36.1514 29.5811 35.9609 29.8838 35.8242C30.1865 35.6875 30.5413 35.6191 30.9482 35.6191C31.3812 35.6191 31.7604 35.7021 32.0859 35.8682C32.4147 36.0342 32.6719 36.2718 32.8574 36.5811C33.0462 36.887 33.1423 37.25 33.1455 37.6699H31.8223C31.819 37.4941 31.7816 37.3346 31.71 37.1914C31.6416 37.0482 31.5407 36.9342 31.4072 36.8496C31.277 36.7617 31.1159 36.7178 30.9238 36.7178C30.7188 36.7178 30.5511 36.7617 30.4209 36.8496C30.2907 36.9342 30.1898 37.0514 30.1182 37.2012C30.0465 37.3477 29.9961 37.5153 29.9668 37.7041C29.9408 37.8896 29.9277 38.085 29.9277 38.29V38.4316C29.9277 38.6367 29.9408 38.8337 29.9668 39.0225C29.9928 39.2113 30.0417 39.3789 30.1133 39.5254C30.1882 39.6719 30.2907 39.7874 30.4209 39.8721C30.5511 39.9567 30.7204 39.999 30.9287 39.999ZM35.4453 33.5V41H34.0342V33.5H35.4453ZM39.0391 41.0977C38.6289 41.0977 38.2611 41.0326 37.9355 40.9023C37.61 40.7689 37.3333 40.585 37.1055 40.3506C36.8809 40.1162 36.7083 39.8444 36.5879 39.5352C36.4674 39.2227 36.4072 38.8906 36.4072 38.5391V38.3438C36.4072 37.9434 36.4642 37.5771 36.5781 37.2451C36.6921 36.9131 36.8548 36.625 37.0664 36.3809C37.2812 36.1367 37.5417 35.9495 37.8477 35.8193C38.1536 35.6859 38.4987 35.6191 38.8828 35.6191C39.2572 35.6191 39.5892 35.681 39.8789 35.8047C40.1686 35.9284 40.4111 36.1042 40.6064 36.332C40.805 36.5599 40.9548 36.8333 41.0557 37.1523C41.1566 37.4681 41.207 37.8197 41.207 38.207V38.793H37.0078V37.8555H39.8252V37.748C39.8252 37.5527 39.7894 37.3786 39.7178 37.2256C39.6494 37.0693 39.5452 36.9456 39.4053 36.8545C39.2653 36.7633 39.0863 36.7178 38.8682 36.7178C38.6826 36.7178 38.5231 36.7585 38.3896 36.8398C38.2562 36.9212 38.1471 37.0352 38.0625 37.1816C37.9811 37.3281 37.9193 37.5007 37.877 37.6992C37.8379 37.8945 37.8184 38.1094 37.8184 38.3438V38.5391C37.8184 38.7507 37.8477 38.946 37.9062 39.125C37.9681 39.304 38.0544 39.4587 38.165 39.5889C38.279 39.7191 38.4157 39.82 38.5752 39.8916C38.738 39.9632 38.9219 39.999 39.127 39.999C39.3809 39.999 39.6169 39.9502 39.835 39.8525C40.0563 39.7516 40.2467 39.6003 40.4062 39.3984L41.0898 40.1406C40.9792 40.3001 40.8278 40.4531 40.6357 40.5996C40.4469 40.7461 40.2191 40.8665 39.9521 40.9609C39.6852 41.0521 39.3809 41.0977 39.0391 41.0977Z" fill="#4F6874"/>
</svg>
