<svg width="53" height="44" viewBox="0 0 53 44" fill="none" xmlns="http://www.w3.org/2000/svg">
<rect width="53" height="44" rx="4" fill="white"/>
<path d="M4.37891 36.959H2.20508V35.5879H4.37891C4.71484 35.5879 4.98828 35.5332 5.19922 35.4238C5.41016 35.3105 5.56445 35.1543 5.66211 34.9551C5.75977 34.7559 5.80859 34.5312 5.80859 34.2812C5.80859 34.0273 5.75977 33.791 5.66211 33.5723C5.56445 33.3535 5.41016 33.1777 5.19922 33.0449C4.98828 32.9121 4.71484 32.8457 4.37891 32.8457H2.81445V40H1.05664V31.4688H4.37891C5.04688 31.4688 5.61914 31.5898 6.0957 31.832C6.57617 32.0703 6.94336 32.4004 7.19727 32.8223C7.45117 33.2441 7.57812 33.7266 7.57812 34.2695C7.57812 34.8203 7.45117 35.2969 7.19727 35.6992C6.94336 36.1016 6.57617 36.4121 6.0957 36.6309C5.61914 36.8496 5.04688 36.959 4.37891 36.959ZM12.0371 38.5703V35.7461C12.0371 35.543 12.0039 35.3691 11.9375 35.2246C11.8711 35.0762 11.7676 34.9609 11.627 34.8789C11.4902 34.7969 11.3125 34.7559 11.0938 34.7559C10.9062 34.7559 10.7441 34.7891 10.6074 34.8555C10.4707 34.918 10.3652 35.0098 10.291 35.1309C10.2168 35.248 10.1797 35.3867 10.1797 35.5469H8.49219C8.49219 35.2773 8.55469 35.0215 8.67969 34.7793C8.80469 34.5371 8.98633 34.3242 9.22461 34.1406C9.46289 33.9531 9.74609 33.8066 10.0742 33.7012C10.4062 33.5957 10.7773 33.543 11.1875 33.543C11.6797 33.543 12.1172 33.625 12.5 33.7891C12.8828 33.9531 13.1836 34.1992 13.4023 34.5273C13.625 34.8555 13.7363 35.2656 13.7363 35.7578V38.4707C13.7363 38.8184 13.7578 39.1035 13.8008 39.3262C13.8438 39.5449 13.9062 39.7363 13.9883 39.9004V40H12.2832C12.2012 39.8281 12.1387 39.6133 12.0957 39.3555C12.0566 39.0938 12.0371 38.832 12.0371 38.5703ZM12.2598 36.1387L12.2715 37.0938H11.3281C11.1055 37.0938 10.9121 37.1191 10.748 37.1699C10.584 37.2207 10.4492 37.293 10.3438 37.3867C10.2383 37.4766 10.1602 37.582 10.1094 37.7031C10.0625 37.8242 10.0391 37.957 10.0391 38.1016C10.0391 38.2461 10.0723 38.377 10.1387 38.4941C10.2051 38.6074 10.3008 38.6973 10.4258 38.7637C10.5508 38.8262 10.6973 38.8574 10.8652 38.8574C11.1191 38.8574 11.3398 38.8066 11.5273 38.7051C11.7148 38.6035 11.8594 38.4785 11.9609 38.3301C12.0664 38.1816 12.1211 38.041 12.125 37.9082L12.5703 38.623C12.5078 38.7832 12.4219 38.9492 12.3125 39.1211C12.207 39.293 12.0723 39.4551 11.9082 39.6074C11.7441 39.7559 11.5469 39.8789 11.3164 39.9766C11.0859 40.0703 10.8125 40.1172 10.4961 40.1172C10.0938 40.1172 9.72852 40.0371 9.40039 39.877C9.07617 39.7129 8.81836 39.4883 8.62695 39.2031C8.43945 38.9141 8.3457 38.5859 8.3457 38.2188C8.3457 37.8867 8.4082 37.5918 8.5332 37.334C8.6582 37.0762 8.8418 36.8594 9.08398 36.6836C9.33008 36.5039 9.63672 36.3691 10.0039 36.2793C10.3711 36.1855 10.7969 36.1387 11.2812 36.1387H12.2598ZM16.8184 33.6602V40H15.125V33.6602H16.8184ZM15.0195 32.0078C15.0195 31.7617 15.1055 31.5586 15.2773 31.3984C15.4492 31.2383 15.6797 31.1582 15.9688 31.1582C16.2539 31.1582 16.4824 31.2383 16.6543 31.3984C16.8301 31.5586 16.918 31.7617 16.918 32.0078C16.918 32.2539 16.8301 32.457 16.6543 32.6172C16.4824 32.7773 16.2539 32.8574 15.9688 32.8574C15.6797 32.8574 15.4492 32.7773 15.2773 32.6172C15.1055 32.457 15.0195 32.2539 15.0195 32.0078ZM21.1309 40.1172C20.6387 40.1172 20.1973 40.0391 19.8066 39.8828C19.416 39.7227 19.084 39.502 18.8105 39.2207C18.541 38.9395 18.334 38.6133 18.1895 38.2422C18.0449 37.8672 17.9727 37.4688 17.9727 37.0469V36.8125C17.9727 36.332 18.041 35.8926 18.1777 35.4941C18.3145 35.0957 18.5098 34.75 18.7637 34.457C19.0215 34.1641 19.334 33.9395 19.7012 33.7832C20.0684 33.623 20.4824 33.543 20.9434 33.543C21.3926 33.543 21.791 33.6172 22.1387 33.7656C22.4863 33.9141 22.7773 34.125 23.0117 34.3984C23.25 34.6719 23.4297 35 23.5508 35.3828C23.6719 35.7617 23.7324 36.1836 23.7324 36.6484V37.3516H18.6934V36.2266H22.0742V36.0977C22.0742 35.8633 22.0312 35.6543 21.9453 35.4707C21.8633 35.2832 21.7383 35.1348 21.5703 35.0254C21.4023 34.916 21.1875 34.8613 20.9258 34.8613C20.7031 34.8613 20.5117 34.9102 20.3516 35.0078C20.1914 35.1055 20.0605 35.2422 19.959 35.418C19.8613 35.5938 19.7871 35.8008 19.7363 36.0391C19.6895 36.2734 19.666 36.5312 19.666 36.8125V37.0469C19.666 37.3008 19.7012 37.5352 19.7715 37.75C19.8457 37.9648 19.9492 38.1504 20.082 38.3066C20.2188 38.4629 20.3828 38.584 20.5742 38.6699C20.7695 38.7559 20.9902 38.7988 21.2363 38.7988C21.541 38.7988 21.8242 38.7402 22.0859 38.623C22.3516 38.502 22.5801 38.3203 22.7715 38.0781L23.5918 38.9688C23.459 39.1602 23.2773 39.3438 23.0469 39.5195C22.8203 39.6953 22.5469 39.8398 22.2266 39.9531C21.9062 40.0625 21.541 40.1172 21.1309 40.1172ZM26.3809 34.9727V40H24.6875V33.6602H26.2754L26.3809 34.9727ZM26.1465 36.6074H25.6777C25.6777 36.166 25.7305 35.7598 25.8359 35.3887C25.9453 35.0137 26.1035 34.6895 26.3105 34.416C26.5215 34.1387 26.7812 33.9238 27.0898 33.7715C27.3984 33.6191 27.7559 33.543 28.1621 33.543C28.4434 33.543 28.7012 33.5859 28.9355 33.6719C29.1699 33.7539 29.3711 33.8848 29.5391 34.0645C29.7109 34.2402 29.8438 34.4707 29.9375 34.7559C30.0312 35.0371 30.0781 35.375 30.0781 35.7695V40H28.3906V35.957C28.3906 35.668 28.3516 35.4453 28.2734 35.2891C28.1953 35.1328 28.084 35.0234 27.9395 34.9609C27.7988 34.8984 27.6289 34.8672 27.4297 34.8672C27.2109 34.8672 27.0195 34.9121 26.8555 35.002C26.6953 35.0918 26.5625 35.2168 26.457 35.377C26.3516 35.5332 26.2734 35.7168 26.2227 35.9277C26.1719 36.1387 26.1465 36.3652 26.1465 36.6074ZM29.9199 36.4141L29.3164 36.4902C29.3164 36.0762 29.3672 35.6914 29.4688 35.3359C29.5742 34.9805 29.7285 34.668 29.9316 34.3984C30.1387 34.1289 30.3945 33.9199 30.6992 33.7715C31.0039 33.6191 31.3555 33.543 31.7539 33.543C32.0586 33.543 32.3359 33.5879 32.5859 33.6777C32.8359 33.7637 33.0488 33.9023 33.2246 34.0938C33.4043 34.2812 33.541 34.5273 33.6348 34.832C33.7324 35.1367 33.7812 35.5098 33.7812 35.9512V40H32.0879V35.9512C32.0879 35.6582 32.0488 35.4355 31.9707 35.2832C31.8965 35.127 31.7871 35.0195 31.6426 34.9609C31.502 34.8984 31.334 34.8672 31.1387 34.8672C30.9355 34.8672 30.7578 34.9082 30.6055 34.9902C30.4531 35.0684 30.3262 35.1777 30.2246 35.3184C30.123 35.459 30.0469 35.623 29.9961 35.8105C29.9453 35.9941 29.9199 36.1953 29.9199 36.4141ZM38.0059 40.1172C37.5137 40.1172 37.0723 40.0391 36.6816 39.8828C36.291 39.7227 35.959 39.502 35.6855 39.2207C35.416 38.9395 35.209 38.6133 35.0645 38.2422C34.9199 37.8672 34.8477 37.4688 34.8477 37.0469V36.8125C34.8477 36.332 34.916 35.8926 35.0527 35.4941C35.1895 35.0957 35.3848 34.75 35.6387 34.457C35.8965 34.1641 36.209 33.9395 36.5762 33.7832C36.9434 33.623 37.3574 33.543 37.8184 33.543C38.2676 33.543 38.666 33.6172 39.0137 33.7656C39.3613 33.9141 39.6523 34.125 39.8867 34.3984C40.125 34.6719 40.3047 35 40.4258 35.3828C40.5469 35.7617 40.6074 36.1836 40.6074 36.6484V37.3516H35.5684V36.2266H38.9492V36.0977C38.9492 35.8633 38.9062 35.6543 38.8203 35.4707C38.7383 35.2832 38.6133 35.1348 38.4453 35.0254C38.2773 34.916 38.0625 34.8613 37.8008 34.8613C37.5781 34.8613 37.3867 34.9102 37.2266 35.0078C37.0664 35.1055 36.9355 35.2422 36.834 35.418C36.7363 35.5938 36.6621 35.8008 36.6113 36.0391C36.5645 36.2734 36.541 36.5312 36.541 36.8125V37.0469C36.541 37.3008 36.5762 37.5352 36.6465 37.75C36.7207 37.9648 36.8242 38.1504 36.957 38.3066C37.0938 38.4629 37.2578 38.584 37.4492 38.6699C37.6445 38.7559 37.8652 38.7988 38.1113 38.7988C38.416 38.7988 38.6992 38.7402 38.9609 38.623C39.2266 38.502 39.4551 38.3203 39.6465 38.0781L40.4668 38.9688C40.334 39.1602 40.1523 39.3438 39.9219 39.5195C39.6953 39.6953 39.4219 39.8398 39.1016 39.9531C38.7812 40.0625 38.416 40.1172 38.0059 40.1172ZM43.2207 35.0137V40H41.5332V33.6602H43.1152L43.2207 35.0137ZM42.9746 36.6074H42.5176C42.5176 36.1387 42.5781 35.7168 42.6992 35.3418C42.8203 34.9629 42.9902 34.6406 43.209 34.375C43.4277 34.1055 43.6875 33.9004 43.9883 33.7598C44.293 33.6152 44.6328 33.543 45.0078 33.543C45.3047 33.543 45.5762 33.5859 45.8223 33.6719C46.0684 33.7578 46.2793 33.8945 46.4551 34.082C46.6348 34.2695 46.7715 34.5176 46.8652 34.8262C46.9629 35.1348 47.0117 35.5117 47.0117 35.957V40H45.3125V35.9512C45.3125 35.6699 45.2734 35.4512 45.1953 35.2949C45.1172 35.1387 45.002 35.0293 44.8496 34.9668C44.7012 34.9004 44.5176 34.8672 44.2988 34.8672C44.0723 34.8672 43.875 34.9121 43.707 35.002C43.543 35.0918 43.4062 35.2168 43.2969 35.377C43.1914 35.5332 43.1113 35.7168 43.0566 35.9277C43.002 36.1387 42.9746 36.3652 42.9746 36.6074ZM51.4004 33.6602V34.8555H47.709V33.6602H51.4004ZM48.623 32.0957H50.3105V38.0898C50.3105 38.2734 50.334 38.4141 50.3809 38.5117C50.4316 38.6094 50.5059 38.6777 50.6035 38.7168C50.7012 38.752 50.8242 38.7695 50.9727 38.7695C51.0781 38.7695 51.1719 38.7656 51.2539 38.7578C51.3398 38.7461 51.4121 38.7344 51.4707 38.7227L51.4766 39.9648C51.332 40.0117 51.1758 40.0488 51.0078 40.0762C50.8398 40.1035 50.6543 40.1172 50.4512 40.1172C50.0801 40.1172 49.7559 40.0566 49.4785 39.9355C49.2051 39.8105 48.9941 39.6113 48.8457 39.3379C48.6973 39.0645 48.623 38.7051 48.623 38.2598V32.0957Z" fill="#455A94"/>
<path d="M25.8406 24.9066V23.8836C25.8406 23.8836 27.057 23.7288 27.7208 23.3153C28.3845 22.9018 29.1451 21.724 29.1451 21.724C29.1451 21.724 28.1834 20.5125 27.7778 19.6212C27.376 18.7384 27.0941 17.2342 27.0941 17.2342C27.0941 17.2342 24.986 16.4953 24.0174 15.6428C23.637 15.308 23.6186 14.9555 23.6186 14.4493C23.6186 13.9947 23.7788 13.6702 24.0744 13.3695C24.3997 13.0387 25.1569 13.0285 25.1569 13.0285C25.1569 13.0285 25.9108 13.0236 26.3534 13.4263C26.796 13.8291 26.8092 14.8472 26.8092 14.8472H27.4359C27.4359 14.8472 27.587 14.0321 27.7778 13.54C27.968 13.0493 28.4614 12.4033 28.4614 12.4033C28.4614 12.4033 27.7901 11.8135 27.265 11.5508C26.7868 11.3116 25.9546 11.0962 25.9546 11.0962V10.0732H24.7011V11.0962C23.7328 11.2188 23.2259 11.4366 22.3651 12.0055C21.5501 12.6968 21.2257 13.4263 21.2257 14.3925C21.202 15.5388 21.2256 15.7565 21.8524 16.7227C22.6036 17.533 23.0886 17.7161 24.0174 18.0867L25.3278 18.655C25.3278 18.655 26.2964 19.0935 26.5243 19.3938C26.7522 19.6941 26.9369 20.1877 26.8662 20.701C26.7956 21.2124 26.2394 21.8377 26.2394 21.8377C26.2394 21.8377 25.4421 22.1207 24.929 22.065C24.4112 22.0088 24.0629 21.9577 23.6756 21.6103C23.1837 21.1691 23.1058 20.019 23.1058 20.019H20.7699C20.7699 20.019 20.6559 20.9283 20.9978 21.6103C21.2765 22.1665 21.4882 22.4616 21.9663 22.8606C22.3861 23.211 22.5921 23.3544 23.1058 23.5426C23.6428 23.7395 24.5302 23.8836 24.5302 23.8836V24.9066H25.8406Z" fill="#455A94"/>
<path d="M33.4883 17.5637C33.4883 17.5637 38.1033 13.5854 38.4451 14.0969C38.787 14.6084 34.0011 19.6664 33.3174 19.6096C32.6337 19.5528 30.9244 16.5976 31.4372 16.2565C31.95 15.9154 33.4883 17.5637 33.4883 17.5637Z" fill="#455A94"/>
<path d="M14.6553 27.0784V5.69701C14.8262 4.90134 15.3959 4.33301 16.1237 4.33301C17.3901 4.33301 17.666 5.697 18.4156 5.697C18.9284 5.697 19.4412 4.38984 20.6946 4.38984C21.8911 4.38984 22.1328 5.75384 22.8596 5.75384C23.5689 5.75384 23.8282 4.33301 25.0247 4.33301C26.1072 4.33301 26.5164 5.69701 27.3037 5.69701C27.8532 5.69701 28.2722 4.33301 29.4117 4.33301C30.5512 4.33301 31.064 5.697 31.5768 5.697C32.0895 5.697 32.9442 4.33301 33.8558 4.33301C34.6534 4.33298 35.3371 5.24234 35.3371 5.69701V9.107H33.6848V6.49267C33.6848 6.49267 32.1465 7.97033 31.5768 7.97033C31.007 7.97033 29.4117 6.26533 29.4117 6.26533C29.4117 6.26533 27.8734 7.97033 27.3037 7.97033C26.7339 7.97033 25.0247 6.26533 25.0247 6.26533C25.0247 6.26533 23.4864 7.97033 22.8596 7.97033C22.2329 7.97033 20.6946 6.26533 20.6946 6.26533C20.6946 6.26533 18.9284 7.97033 18.4156 7.97033C17.9028 7.97033 16.4785 6.26533 16.4785 6.26533V26.839H33.6848V23.77H35.3371V27.0784C35.3371 28.0447 34.5497 28.8281 33.5785 28.8281H16.4139C15.4426 28.8281 14.6553 28.0447 14.6553 27.0784Z" fill="#455A94"/>
<path fill-rule="evenodd" clip-rule="evenodd" d="M41.0346 16.4953C41.0346 20.0422 38.1522 22.9175 34.5965 22.9175C31.0408 22.9175 28.1584 20.0422 28.1584 16.4953C28.1584 12.9485 31.0408 10.0732 34.5965 10.0732C38.1522 10.0732 41.0346 12.9485 41.0346 16.4953ZM28.9976 16.4953C29.0446 13.6119 31.3424 11.04 34.5965 11.04C37.8506 11.04 40.0887 13.6285 40.1355 16.4953C40.1831 19.4093 37.5258 22.1046 34.5965 22.1211C31.6508 22.1377 28.9498 19.4257 28.9976 16.4953Z" fill="#455A94"/>
</svg>
