<svg width="53" height="44" viewBox="0 0 53 44" fill="none" xmlns="http://www.w3.org/2000/svg">
<rect width="53" height="44" rx="4" fill="white"/>
<path fill-rule="evenodd" clip-rule="evenodd" d="M14 7.1286H16.2235V5L20.3529 5V7.1286H34.4088V5.00001H38.6176V7.1286H41V25H14V7.1286ZM24.6876 12.0834H29.7501V16.2153H24.6876V12.0834ZM29.7501 18.5764H24.6876V22.7084H29.7501V18.5764ZM32.5626 18.5764H37.6252V22.7084H32.5626V18.5764ZM21.8751 18.5764H16.8126V22.7084H21.8751V18.5764ZM16.8126 12.0834H21.8751V16.2153H16.8126V12.0834ZM37.6252 12.0834H32.5626V16.2153H37.6252V12.0834Z" fill="#455A94"/>
<path d="M15.7617 30.4688H18.9434C19.5957 30.4688 20.1562 30.5664 20.625 30.7617C21.0977 30.957 21.4609 31.2461 21.7148 31.6289C21.9688 32.0117 22.0957 32.4824 22.0957 33.041C22.0957 33.498 22.0176 33.8906 21.8613 34.2188C21.709 34.543 21.4922 34.8145 21.2109 35.0332C20.9336 35.248 20.6074 35.4199 20.2324 35.5488L19.6758 35.8418H16.9102L16.8984 34.4707H18.9551C19.2637 34.4707 19.5195 34.416 19.7227 34.3066C19.9258 34.1973 20.0781 34.0449 20.1797 33.8496C20.2852 33.6543 20.3379 33.4277 20.3379 33.1699C20.3379 32.8965 20.2871 32.6602 20.1855 32.4609C20.084 32.2617 19.9297 32.1094 19.7227 32.0039C19.5156 31.8984 19.2559 31.8457 18.9434 31.8457H17.5195V39H15.7617V30.4688ZM20.5312 39L18.5859 35.1973L20.4434 35.1855L22.4121 38.918V39H20.5312ZM26.0684 39H24.2109L24.2227 37.6289H26.0684C26.5293 37.6289 26.918 37.5254 27.2344 37.3184C27.5508 37.1074 27.7891 36.8008 27.9492 36.3984C28.1133 35.9961 28.1953 35.5098 28.1953 34.9395V34.5234C28.1953 34.0859 28.1484 33.7012 28.0547 33.3691C27.9648 33.0371 27.8301 32.7578 27.6504 32.5312C27.4707 32.3047 27.25 32.1348 26.9883 32.0215C26.7266 31.9043 26.4258 31.8457 26.0859 31.8457H24.1758V30.4688H26.0859C26.6562 30.4688 27.1777 30.5664 27.6504 30.7617C28.127 30.9531 28.5391 31.2285 28.8867 31.5879C29.2344 31.9473 29.502 32.377 29.6895 32.877C29.8809 33.373 29.9766 33.9258 29.9766 34.5352V34.9395C29.9766 35.5449 29.8809 36.0977 29.6895 36.5977C29.502 37.0977 29.2344 37.5273 28.8867 37.8867C28.543 38.2422 28.1309 38.5176 27.6504 38.7129C27.1738 38.9043 26.6465 39 26.0684 39ZM25.207 30.4688V39H23.4492V30.4688H25.207ZM34.2012 37.2188L36.2109 30.4688H38.168L35.1973 39H33.9082L34.2012 37.2188ZM32.3496 30.4688L34.3535 37.2188L34.6582 39H33.3574L30.4043 30.4688H32.3496Z" fill="#455A94"/>
</svg>
