<svg width="127" height="111" viewBox="0 0 127 111" fill="none">
  <g filter="url(#filter0_i_423:364)">
    <rect x="20" y="12" width="87" height="71" rx="10" fill="white" />
  </g>
  <text fill="#4F6874" fontSize="18" fontWeight="bold">
    <tspan x="36.1748" y="77.6523">Report</tspan>
  </text>
  <path
    fillRule="evenodd"
    clipRule="evenodd"
    d="M83.1658 25.4204H62.6765L57.052 30.6174V61H83.1658V25.4204ZM60.266 30.6174L63.2791 27.4193H81.1571V59.201H58.659V31.8167H63.8817V29.4181H62.0739V30.6174H60.266Z"
    fill="#4F6874"
  />
  <path
    d="M83.1658 25.4204H62.6765L57.052 30.6174V61H83.1658V25.4204ZM60.266 30.6174L63.2791 27.4193H81.1571V59.201H58.659V31.8167H63.8817V29.4181H62.0739V30.6174H60.266Z"
    fill="#4F6874"
  />
  <path
    d="M62.0739 44.2096L64.4844 44.8093L69.3054 42.0109L64.0826 47.4078L62.0739 44.2096Z"
    fill="#4F6874"
  />
  <path d="M71.515 37.0138V38.6129H77.1396V37.0138H71.515Z" fill="#4F6874" />
  <path d="M71.515 34.6151H78.5457V36.4141H71.515V34.6151Z" fill="#4F6874" />
  <path d="M71.515 43.4101H78.5457V45.2091H71.515V43.4101Z" fill="#4F6874" />
  <path d="M71.515 45.8087V47.4078H77.1396V45.8087H71.515Z" fill="#4F6874" />
  <path d="M71.515 51.6053H78.5457V53.4043H71.515V51.6053Z" fill="#4F6874" />
  <path d="M71.515 54.004V55.603H77.1396V54.004H71.515Z" fill="#4F6874" />
  <path
    d="M67.0958 22.622H71.9168V19.6237H70.3098V20.6232H68.301L71.3142 18.0246H89.1921V50.0063H84.1702V51.6054H91V16.0258H71.3142L65.2879 21.4227V24.8208H67.0958V22.622Z"
    fill="#4F6874"
  />
  <path
    fillRule="evenodd"
    clipRule="evenodd"
    d="M42.1869 18.0246C40.5799 19.6237 46.2044 24.1411 45.4009 25.4204C44.5974 26.6996 45.0661 28.0855 45.4009 28.6185C40.781 31.8167 34.9553 36.2142 36.1606 43.8098C39.1738 54.2038 54.6417 52.4049 55.6453 50.6059C55.6453 50.6059 56.4496 49.0068 54.6417 49.0068C48.0123 50.6059 40.9816 50.2061 38.37 43.0103C37.165 38.4129 42.1869 33.0161 47.0079 29.4181C48.8158 29.618 50.2219 29.4181 51.4269 29.2182C52.7561 28.9976 53.4359 31.8167 54.8421 31.8167C55.967 31.8167 55.6456 30.6174 55.6456 30.6174C55.6456 30.6174 54.8423 29.4181 54.2392 28.6185C53.627 27.8069 54.6034 26.9679 54.2392 26.02C53.959 25.2909 53.7842 25.5202 53.4359 24.8208C52.0703 22.0776 58.044 17.4937 55.2438 16.2257C53.7292 15.5398 53.0858 18.1564 51.4269 18.0246C49.5227 17.8733 48.8645 15.7431 48.0123 16.0258C46.807 16.4256 47.761 17.4252 47.0079 18.4244C46.4053 19.2239 43.7939 16.4255 42.1869 18.0246ZM51.0257 20.6232C51.6953 20.1568 53.0746 19.184 53.2353 19.0241L51.0257 24.8208H47.8117C47.6512 24.8208 46.0039 21.7559 45.2003 20.2234L48.2134 21.4227L49.0169 18.4244L51.0257 20.6232ZM49.6195 27.4193C49.0169 27.4193 47.6108 27.6192 46.4055 26.6197C49.2178 26.8196 50.0213 26.8196 52.4318 26.4198C51.606 27.324 50.2222 27.4193 49.6195 27.4193Z"
    fill="#4F6874"
  />
  <path
    fillRule="evenodd"
    clipRule="evenodd"
    d="M48.2134 34.0155C47.0083 35.1482 44.9004 36.2454 45.2003 38.2131C45.4416 39.7966 47.2759 40.2119 48.2134 41.0115V44.4095C48.2134 44.4095 46.4055 42.4107 45.8029 43.0103C44.5812 44.2258 47.2413 45.1871 48.2134 46.6083C48.6299 47.217 48.4854 47.902 49.2178 48.0075C49.9864 48.1181 50.0883 47.1678 50.6239 46.6083C51.9678 45.2042 53.9504 44.7462 53.8379 42.8104C53.7291 40.9369 50.6239 39.4124 50.6239 39.4124V36.0143C51.1596 36.5474 52.4318 37.4135 52.4318 37.4135L53.2353 36.0143L50.6239 33.9727C50.6239 33.9727 50.4231 32.4164 49.4187 32.4164C48.4143 32.4164 48.2134 34.0155 48.2134 34.0155ZM47.0082 37.6134C47.0082 37.0138 48.2134 36.4141 48.2134 36.4141V39.0126C48.2134 39.0126 47.0082 38.2131 47.0082 37.6134ZM50.6239 44.2096V41.6111L51.8292 42.8104L50.6239 44.2096Z"
    fill="#4F6874"
  />
  <path
    d="M62.0739 52.8046L64.4844 53.4043L69.3054 50.6059L64.0826 56.0028L62.0739 52.8046Z"
    fill="#4F6874"
  />
  <defs>
    <filter
      id="filter0_i_423:364"
      x="0"
      y="0"
      width="127"
      height="111"
      filterUnits="userSpaceOnUse"
      colorInterpolationFilters="sRGB"
    >
      <feFlood flood-opacity="0" result="BackgroundImageFix" />
      <feBlend
        mode="normal"
        in="SourceGraphic"
        in2="BackgroundImageFix"
        result="shape"
      />
      <feColorMatrix
        in="SourceAlpha"
        type="matrix"
        values="0 0 0 0 0 0 0 0 0 0 0 0 0 0 0 0 0 0 127 0"
        result="hardAlpha"
      />
      <feMorphology
        radius="3"
        operator="erode"
        in="SourceAlpha"
        result="effect1_innerShadow_423:364"
      />
      <feOffset />
      <feGaussianBlur stdDeviation="4.5" />
      <feComposite in2="hardAlpha" operator="arithmetic" k2="-1" k3="1" />
      <feColorMatrix
        type="matrix"
        values="0 0 0 0 0 0 0 0 0 0 0 0 0 0 0 0 0 0 0.24 0"
      />
      <feBlend mode="normal" in2="shape" result="effect1_innerShadow_423:364" />
    </filter>
  </defs>
</svg>
