<svg width="53" height="44" viewBox="0 0 53 44" fill="none" xmlns="http://www.w3.org/2000/svg">
<rect width="53" height="44" rx="4" fill="#455A94"/>
<path d="M8.08398 35.959H5.91016V34.5879H8.08398C8.41992 34.5879 8.69336 34.5332 8.9043 34.4238C9.11523 34.3105 9.26953 34.1543 9.36719 33.9551C9.46484 33.7559 9.51367 33.5312 9.51367 33.2812C9.51367 33.0273 9.46484 32.791 9.36719 32.5723C9.26953 32.3535 9.11523 32.1777 8.9043 32.0449C8.69336 31.9121 8.41992 31.8457 8.08398 31.8457H6.51953V39H4.76172V30.4688H8.08398C8.75195 30.4688 9.32422 30.5898 9.80078 30.832C10.2812 31.0703 10.6484 31.4004 10.9023 31.8223C11.1562 32.2441 11.2832 32.7266 11.2832 33.2695C11.2832 33.8203 11.1562 34.2969 10.9023 34.6992C10.6484 35.1016 10.2812 35.4121 9.80078 35.6309C9.32422 35.8496 8.75195 35.959 8.08398 35.959ZM15.7422 37.5703V34.7461C15.7422 34.543 15.709 34.3691 15.6426 34.2246C15.5762 34.0762 15.4727 33.9609 15.332 33.8789C15.1953 33.7969 15.0176 33.7559 14.7988 33.7559C14.6113 33.7559 14.4492 33.7891 14.3125 33.8555C14.1758 33.918 14.0703 34.0098 13.9961 34.1309C13.9219 34.248 13.8848 34.3867 13.8848 34.5469H12.1973C12.1973 34.2773 12.2598 34.0215 12.3848 33.7793C12.5098 33.5371 12.6914 33.3242 12.9297 33.1406C13.168 32.9531 13.4512 32.8066 13.7793 32.7012C14.1113 32.5957 14.4824 32.543 14.8926 32.543C15.3848 32.543 15.8223 32.625 16.2051 32.7891C16.5879 32.9531 16.8887 33.1992 17.1074 33.5273C17.3301 33.8555 17.4414 34.2656 17.4414 34.7578V37.4707C17.4414 37.8184 17.4629 38.1035 17.5059 38.3262C17.5488 38.5449 17.6113 38.7363 17.6934 38.9004V39H15.9883C15.9062 38.8281 15.8438 38.6133 15.8008 38.3555C15.7617 38.0938 15.7422 37.832 15.7422 37.5703ZM15.9648 35.1387L15.9766 36.0938H15.0332C14.8105 36.0938 14.6172 36.1191 14.4531 36.1699C14.2891 36.2207 14.1543 36.293 14.0488 36.3867C13.9434 36.4766 13.8652 36.582 13.8145 36.7031C13.7676 36.8242 13.7441 36.957 13.7441 37.1016C13.7441 37.2461 13.7773 37.377 13.8438 37.4941C13.9102 37.6074 14.0059 37.6973 14.1309 37.7637C14.2559 37.8262 14.4023 37.8574 14.5703 37.8574C14.8242 37.8574 15.0449 37.8066 15.2324 37.7051C15.4199 37.6035 15.5645 37.4785 15.666 37.3301C15.7715 37.1816 15.8262 37.041 15.8301 36.9082L16.2754 37.623C16.2129 37.7832 16.127 37.9492 16.0176 38.1211C15.9121 38.293 15.7773 38.4551 15.6133 38.6074C15.4492 38.7559 15.252 38.8789 15.0215 38.9766C14.791 39.0703 14.5176 39.1172 14.2012 39.1172C13.7988 39.1172 13.4336 39.0371 13.1055 38.877C12.7812 38.7129 12.5234 38.4883 12.332 38.2031C12.1445 37.9141 12.0508 37.5859 12.0508 37.2188C12.0508 36.8867 12.1133 36.5918 12.2383 36.334C12.3633 36.0762 12.5469 35.8594 12.7891 35.6836C13.0352 35.5039 13.3418 35.3691 13.709 35.2793C14.0762 35.1855 14.502 35.1387 14.9863 35.1387H15.9648ZM21.8477 32.6602V33.8555H18.1562V32.6602H21.8477ZM19.0703 31.0957H20.7578V37.0898C20.7578 37.2734 20.7812 37.4141 20.8281 37.5117C20.8789 37.6094 20.9531 37.6777 21.0508 37.7168C21.1484 37.752 21.2715 37.7695 21.4199 37.7695C21.5254 37.7695 21.6191 37.7656 21.7012 37.7578C21.7871 37.7461 21.8594 37.7344 21.918 37.7227L21.9238 38.9648C21.7793 39.0117 21.623 39.0488 21.4551 39.0762C21.2871 39.1035 21.1016 39.1172 20.8984 39.1172C20.5273 39.1172 20.2031 39.0566 19.9258 38.9355C19.6523 38.8105 19.4414 38.6113 19.293 38.3379C19.1445 38.0645 19.0703 37.7051 19.0703 37.2598V31.0957ZM24.5898 32.6602V39H22.8965V32.6602H24.5898ZM22.791 31.0078C22.791 30.7617 22.877 30.5586 23.0488 30.3984C23.2207 30.2383 23.4512 30.1582 23.7402 30.1582C24.0254 30.1582 24.2539 30.2383 24.4258 30.3984C24.6016 30.5586 24.6895 30.7617 24.6895 31.0078C24.6895 31.2539 24.6016 31.457 24.4258 31.6172C24.2539 31.7773 24.0254 31.8574 23.7402 31.8574C23.4512 31.8574 23.2207 31.7773 23.0488 31.6172C22.877 31.457 22.791 31.2539 22.791 31.0078ZM28.9023 39.1172C28.4102 39.1172 27.9688 39.0391 27.5781 38.8828C27.1875 38.7227 26.8555 38.502 26.582 38.2207C26.3125 37.9395 26.1055 37.6133 25.9609 37.2422C25.8164 36.8672 25.7441 36.4688 25.7441 36.0469V35.8125C25.7441 35.332 25.8125 34.8926 25.9492 34.4941C26.0859 34.0957 26.2812 33.75 26.5352 33.457C26.793 33.1641 27.1055 32.9395 27.4727 32.7832C27.8398 32.623 28.2539 32.543 28.7148 32.543C29.1641 32.543 29.5625 32.6172 29.9102 32.7656C30.2578 32.9141 30.5488 33.125 30.7832 33.3984C31.0215 33.6719 31.2012 34 31.3223 34.3828C31.4434 34.7617 31.5039 35.1836 31.5039 35.6484V36.3516H26.4648V35.2266H29.8457V35.0977C29.8457 34.8633 29.8027 34.6543 29.7168 34.4707C29.6348 34.2832 29.5098 34.1348 29.3418 34.0254C29.1738 33.916 28.959 33.8613 28.6973 33.8613C28.4746 33.8613 28.2832 33.9102 28.123 34.0078C27.9629 34.1055 27.832 34.2422 27.7305 34.418C27.6328 34.5938 27.5586 34.8008 27.5078 35.0391C27.4609 35.2734 27.4375 35.5312 27.4375 35.8125V36.0469C27.4375 36.3008 27.4727 36.5352 27.543 36.75C27.6172 36.9648 27.7207 37.1504 27.8535 37.3066C27.9902 37.4629 28.1543 37.584 28.3457 37.6699C28.541 37.7559 28.7617 37.7988 29.0078 37.7988C29.3125 37.7988 29.5957 37.7402 29.8574 37.623C30.123 37.502 30.3516 37.3203 30.543 37.0781L31.3633 37.9688C31.2305 38.1602 31.0488 38.3438 30.8184 38.5195C30.5918 38.6953 30.3184 38.8398 29.998 38.9531C29.6777 39.0625 29.3125 39.1172 28.9023 39.1172ZM34.1172 34.0137V39H32.4297V32.6602H34.0117L34.1172 34.0137ZM33.8711 35.6074H33.4141C33.4141 35.1387 33.4746 34.7168 33.5957 34.3418C33.7168 33.9629 33.8867 33.6406 34.1055 33.375C34.3242 33.1055 34.584 32.9004 34.8848 32.7598C35.1895 32.6152 35.5293 32.543 35.9043 32.543C36.2012 32.543 36.4727 32.5859 36.7188 32.6719C36.9648 32.7578 37.1758 32.8945 37.3516 33.082C37.5312 33.2695 37.668 33.5176 37.7617 33.8262C37.8594 34.1348 37.9082 34.5117 37.9082 34.957V39H36.209V34.9512C36.209 34.6699 36.1699 34.4512 36.0918 34.2949C36.0137 34.1387 35.8984 34.0293 35.7461 33.9668C35.5977 33.9004 35.4141 33.8672 35.1953 33.8672C34.9688 33.8672 34.7715 33.9121 34.6035 34.002C34.4395 34.0918 34.3027 34.2168 34.1934 34.377C34.0879 34.5332 34.0078 34.7168 33.9531 34.9277C33.8984 35.1387 33.8711 35.3652 33.8711 35.6074ZM42.2969 32.6602V33.8555H38.6055V32.6602H42.2969ZM39.5195 31.0957H41.207V37.0898C41.207 37.2734 41.2305 37.4141 41.2773 37.5117C41.3281 37.6094 41.4023 37.6777 41.5 37.7168C41.5977 37.752 41.7207 37.7695 41.8691 37.7695C41.9746 37.7695 42.0684 37.7656 42.1504 37.7578C42.2363 37.7461 42.3086 37.7344 42.3672 37.7227L42.373 38.9648C42.2285 39.0117 42.0723 39.0488 41.9043 39.0762C41.7363 39.1035 41.5508 39.1172 41.3477 39.1172C40.9766 39.1172 40.6523 39.0566 40.375 38.9355C40.1016 38.8105 39.8906 38.6113 39.7422 38.3379C39.5938 38.0645 39.5195 37.7051 39.5195 37.2598V31.0957ZM46.6855 37.248C46.6855 37.127 46.6504 37.0176 46.5801 36.9199C46.5098 36.8223 46.3789 36.7324 46.1875 36.6504C46 36.5645 45.7285 36.4863 45.373 36.416C45.0527 36.3457 44.7539 36.2578 44.4766 36.1523C44.2031 36.043 43.9648 35.9121 43.7617 35.7598C43.5625 35.6074 43.4062 35.4277 43.293 35.2207C43.1797 35.0098 43.123 34.7695 43.123 34.5C43.123 34.2344 43.1797 33.9844 43.293 33.75C43.4102 33.5156 43.5762 33.3086 43.791 33.1289C44.0098 32.9453 44.2754 32.8027 44.5879 32.7012C44.9043 32.5957 45.2598 32.543 45.6543 32.543C46.2051 32.543 46.6777 32.6309 47.0723 32.8066C47.4707 32.9824 47.7754 33.2246 47.9863 33.5332C48.2012 33.8379 48.3086 34.1855 48.3086 34.5762H46.6211C46.6211 34.4121 46.5859 34.2656 46.5156 34.1367C46.4492 34.0039 46.3438 33.9004 46.1992 33.8262C46.0586 33.748 45.875 33.709 45.6484 33.709C45.4609 33.709 45.2988 33.7422 45.1621 33.8086C45.0254 33.8711 44.9199 33.957 44.8457 34.0664C44.7754 34.1719 44.7402 34.2891 44.7402 34.418C44.7402 34.5156 44.7598 34.6035 44.7988 34.6816C44.8418 34.7559 44.9102 34.8242 45.0039 34.8867C45.0977 34.9492 45.2188 35.0078 45.3672 35.0625C45.5195 35.1133 45.707 35.1602 45.9297 35.2031C46.3867 35.2969 46.7949 35.4199 47.1543 35.5723C47.5137 35.7207 47.7988 35.9238 48.0098 36.1816C48.2207 36.4355 48.3262 36.7695 48.3262 37.1836C48.3262 37.4648 48.2637 37.7227 48.1387 37.957C48.0137 38.1914 47.834 38.3965 47.5996 38.5723C47.3652 38.7441 47.084 38.8789 46.7559 38.9766C46.4316 39.0703 46.0664 39.1172 45.6602 39.1172C45.0703 39.1172 44.5703 39.0117 44.1602 38.8008C43.7539 38.5898 43.4453 38.3223 43.2344 37.998C43.0273 37.6699 42.9238 37.334 42.9238 36.9902H44.5234C44.5312 37.2207 44.5898 37.4062 44.6992 37.5469C44.8125 37.6875 44.9551 37.7891 45.127 37.8516C45.3027 37.9141 45.4922 37.9453 45.6953 37.9453C45.9141 37.9453 46.0957 37.916 46.2402 37.8574C46.3848 37.7949 46.4941 37.7129 46.5684 37.6113C46.6465 37.5059 46.6855 37.3848 46.6855 37.248Z" fill="white"/>
<path d="M32.7778 10.5172C32.7778 13.5643 30.4148 16.0345 27.5 16.0345C24.5852 16.0345 22.2222 13.5643 22.2222 10.5172C22.2222 7.47015 24.5852 5 27.5 5C30.4148 5 32.7778 7.47015 32.7778 10.5172Z" fill="white"/>
<path d="M18 25C18 16.0345 37 16.0345 37 25C32.0667 25 23.9581 25 18 25Z" fill="white"/>
</svg>
