<svg width="53" height="44" viewBox="0 0 53 44" fill="none" xmlns="http://www.w3.org/2000/svg">
<rect width="53" height="44" rx="4" fill="white"/>
<path d="M16.9877 2.65977C20.0289 5.54057 20.1399 6.1832 19.0078 7.69008C18.0088 8.46568 17.2319 9.30775 13.9687 5.54057C12.6146 9.04184 16.4105 12.5431 19.4739 11.6345C24.1134 16.1995 26.4081 18.6982 31.106 23.2242C30.4178 25.3515 32.3935 29.9387 37.2106 28.7642C35.1017 26.4152 33.3036 25.6618 35.1683 23.4901C36.9442 22.0719 38.4093 24.1771 40.0742 25.7947C41.4505 19.7894 35.5679 19.324 34.5912 19.7451C30.1333 15.0934 27.5065 12.7187 22.8703 8.24408C24.069 4.76497 19.9179 1.24154 16.9877 2.65977Z" fill="#455A94"/>
<path d="M26.0225 8.00032C30.3748 8.00032 33.903 11.5224 33.903 15.8671C33.903 16.3903 33.8518 16.9015 33.7542 17.3961L35.0129 18.482L36.5829 18.5706C36.6482 18.3156 36.7045 18.0569 36.7514 17.795H39.1197V14.0278H36.7669C36.6603 13.4023 36.5001 12.795 36.2913 12.2107L38.2983 10.9698L36.4114 7.77872L34.4358 8.94931C34.0319 8.4604 33.5861 8.00731 33.1039 7.5955L34.2804 5.58489L30.9728 3.67913L29.8185 5.6646C29.2269 5.44516 28.611 5.27554 27.976 5.16083V2.90353H23.9137V5.19007C23.9137 5.19007 24.1082 5.90988 24.1578 6.38264C24.2112 6.89045 24.1578 7.69008 24.1578 7.69008L24.6018 8.12782C25.0626 8.04407 25.5375 8.00032 26.0225 8.00032Z" fill="#455A94"/>
<path d="M26.0225 23.7339C21.6702 23.7339 18.142 20.2118 18.142 15.8671C18.142 14.808 18.3517 13.7977 18.7318 12.8755C18.7318 12.8755 17.7807 12.8446 17.1875 12.7204C16.6055 12.5985 15.738 12.255 15.738 12.255C15.5345 12.8326 15.3783 13.4325 15.2743 14.05H13.0142V17.7729H15.2897C15.406 18.4304 15.5815 19.0675 15.8105 19.6786L13.7689 20.7201L15.6558 24.0663L17.68 22.8696C18.0925 23.3589 18.5475 23.8114 19.0392 24.2214L17.8756 26.2601L21.1388 28.1437L22.382 26.1259C22.9535 26.328 23.547 26.4839 24.1578 26.589V28.9858H27.9538V26.5773C28.6926 26.4455 29.4057 26.2393 30.0849 25.9668C30.0849 25.9668 29.9069 25.2738 29.8629 24.8197C29.8177 24.3546 29.8629 23.6231 29.8629 23.6231L29.2635 23.0399C28.275 23.4857 27.1778 23.7339 26.0225 23.7339Z" fill="#455A94"/>
<path d="M9.20312 38.7676C9.20312 38.6152 9.17969 38.4785 9.13281 38.3574C9.08984 38.2324 9.00781 38.1191 8.88672 38.0176C8.76562 37.9121 8.5957 37.8086 8.37695 37.707C8.1582 37.6055 7.875 37.5 7.52734 37.3906C7.14062 37.2656 6.77344 37.125 6.42578 36.9688C6.08203 36.8125 5.77734 36.6309 5.51172 36.4238C5.25 36.2129 5.04297 35.9688 4.89062 35.6914C4.74219 35.4141 4.66797 35.0918 4.66797 34.7246C4.66797 34.3691 4.74609 34.0469 4.90234 33.7578C5.05859 33.4648 5.27734 33.2148 5.55859 33.0078C5.83984 32.7969 6.17188 32.6348 6.55469 32.5215C6.94141 32.4082 7.36523 32.3516 7.82617 32.3516C8.45508 32.3516 9.00391 32.4648 9.47266 32.6914C9.94141 32.918 10.3047 33.2285 10.5625 33.623C10.8242 34.0176 10.9551 34.4688 10.9551 34.9766H9.20898C9.20898 34.7266 9.15625 34.5078 9.05078 34.3203C8.94922 34.1289 8.79297 33.9785 8.58203 33.8691C8.375 33.7598 8.11328 33.7051 7.79688 33.7051C7.49219 33.7051 7.23828 33.752 7.03516 33.8457C6.83203 33.9355 6.67969 34.0586 6.57812 34.2148C6.47656 34.3672 6.42578 34.5391 6.42578 34.7305C6.42578 34.875 6.46094 35.0059 6.53125 35.123C6.60547 35.2402 6.71484 35.3496 6.85938 35.4512C7.00391 35.5527 7.18164 35.6484 7.39258 35.7383C7.60352 35.8281 7.84766 35.916 8.125 36.002C8.58984 36.1426 8.99805 36.3008 9.34961 36.4766C9.70508 36.6523 10.002 36.8496 10.2402 37.0684C10.4785 37.2871 10.6582 37.5352 10.7793 37.8125C10.9004 38.0898 10.9609 38.4043 10.9609 38.7559C10.9609 39.127 10.8887 39.459 10.7441 39.752C10.5996 40.0449 10.3906 40.293 10.1172 40.4961C9.84375 40.6992 9.51758 40.8535 9.13867 40.959C8.75977 41.0645 8.33594 41.1172 7.86719 41.1172C7.44531 41.1172 7.0293 41.0625 6.61914 40.9531C6.20898 40.8398 5.83594 40.6699 5.5 40.4434C5.16797 40.2168 4.90234 39.9277 4.70312 39.5762C4.50391 39.2246 4.4043 38.8086 4.4043 38.3281H6.16797C6.16797 38.5938 6.20898 38.8184 6.29102 39.002C6.37305 39.1855 6.48828 39.334 6.63672 39.4473C6.78906 39.5605 6.96875 39.6426 7.17578 39.6934C7.38672 39.7441 7.61719 39.7695 7.86719 39.7695C8.17188 39.7695 8.42188 39.7266 8.61719 39.6406C8.81641 39.5547 8.96289 39.4355 9.05664 39.2832C9.1543 39.1309 9.20312 38.959 9.20312 38.7676ZM14.9688 41.1172C14.4766 41.1172 14.0352 41.0391 13.6445 40.8828C13.2539 40.7227 12.9219 40.502 12.6484 40.2207C12.3789 39.9395 12.1719 39.6133 12.0273 39.2422C11.8828 38.8672 11.8105 38.4688 11.8105 38.0469V37.8125C11.8105 37.332 11.8789 36.8926 12.0156 36.4941C12.1523 36.0957 12.3477 35.75 12.6016 35.457C12.8594 35.1641 13.1719 34.9395 13.5391 34.7832C13.9062 34.623 14.3203 34.543 14.7812 34.543C15.2305 34.543 15.6289 34.6172 15.9766 34.7656C16.3242 34.9141 16.6152 35.125 16.8496 35.3984C17.0879 35.6719 17.2676 36 17.3887 36.3828C17.5098 36.7617 17.5703 37.1836 17.5703 37.6484V38.3516H12.5312V37.2266H15.9121V37.0977C15.9121 36.8633 15.8691 36.6543 15.7832 36.4707C15.7012 36.2832 15.5762 36.1348 15.4082 36.0254C15.2402 35.916 15.0254 35.8613 14.7637 35.8613C14.541 35.8613 14.3496 35.9102 14.1895 36.0078C14.0293 36.1055 13.8984 36.2422 13.7969 36.418C13.6992 36.5938 13.625 36.8008 13.5742 37.0391C13.5273 37.2734 13.5039 37.5312 13.5039 37.8125V38.0469C13.5039 38.3008 13.5391 38.5352 13.6094 38.75C13.6836 38.9648 13.7871 39.1504 13.9199 39.3066C14.0566 39.4629 14.2207 39.584 14.4121 39.6699C14.6074 39.7559 14.8281 39.7988 15.0742 39.7988C15.3789 39.7988 15.6621 39.7402 15.9238 39.623C16.1895 39.502 16.418 39.3203 16.6094 39.0781L17.4297 39.9688C17.2969 40.1602 17.1152 40.3438 16.8848 40.5195C16.6582 40.6953 16.3848 40.8398 16.0645 40.9531C15.7441 41.0625 15.3789 41.1172 14.9688 41.1172ZM21.6367 34.6602V35.8555H17.9453V34.6602H21.6367ZM18.8594 33.0957H20.5469V39.0898C20.5469 39.2734 20.5703 39.4141 20.6172 39.5117C20.668 39.6094 20.7422 39.6777 20.8398 39.7168C20.9375 39.752 21.0605 39.7695 21.209 39.7695C21.3145 39.7695 21.4082 39.7656 21.4902 39.7578C21.5762 39.7461 21.6484 39.7344 21.707 39.7227L21.7129 40.9648C21.5684 41.0117 21.4121 41.0488 21.2441 41.0762C21.0762 41.1035 20.8906 41.1172 20.6875 41.1172C20.3164 41.1172 19.9922 41.0566 19.7148 40.9355C19.4414 40.8105 19.2305 40.6113 19.082 40.3379C18.9336 40.0645 18.8594 39.7051 18.8594 39.2598V33.0957ZM25.7031 34.6602V35.8555H22.0117V34.6602H25.7031ZM22.9258 33.0957H24.6133V39.0898C24.6133 39.2734 24.6367 39.4141 24.6836 39.5117C24.7344 39.6094 24.8086 39.6777 24.9062 39.7168C25.0039 39.752 25.127 39.7695 25.2754 39.7695C25.3809 39.7695 25.4746 39.7656 25.5566 39.7578C25.6426 39.7461 25.7148 39.7344 25.7734 39.7227L25.7793 40.9648C25.6348 41.0117 25.4785 41.0488 25.3105 41.0762C25.1426 41.1035 24.957 41.1172 24.7539 41.1172C24.3828 41.1172 24.0586 41.0566 23.7812 40.9355C23.5078 40.8105 23.2969 40.6113 23.1484 40.3379C23 40.0645 22.9258 39.7051 22.9258 39.2598V33.0957ZM28.4453 34.6602V41H26.752V34.6602H28.4453ZM26.6465 33.0078C26.6465 32.7617 26.7324 32.5586 26.9043 32.3984C27.0762 32.2383 27.3066 32.1582 27.5957 32.1582C27.8809 32.1582 28.1094 32.2383 28.2812 32.3984C28.457 32.5586 28.5449 32.7617 28.5449 33.0078C28.5449 33.2539 28.457 33.457 28.2812 33.6172C28.1094 33.7773 27.8809 33.8574 27.5957 33.8574C27.3066 33.8574 27.0762 33.7773 26.9043 33.6172C26.7324 33.457 26.6465 33.2539 26.6465 33.0078ZM31.4922 36.0137V41H29.8047V34.6602H31.3867L31.4922 36.0137ZM31.2461 37.6074H30.7891C30.7891 37.1387 30.8496 36.7168 30.9707 36.3418C31.0918 35.9629 31.2617 35.6406 31.4805 35.375C31.6992 35.1055 31.959 34.9004 32.2598 34.7598C32.5645 34.6152 32.9043 34.543 33.2793 34.543C33.5762 34.543 33.8477 34.5859 34.0938 34.6719C34.3398 34.7578 34.5508 34.8945 34.7266 35.082C34.9062 35.2695 35.043 35.5176 35.1367 35.8262C35.2344 36.1348 35.2832 36.5117 35.2832 36.957V41H33.584V36.9512C33.584 36.6699 33.5449 36.4512 33.4668 36.2949C33.3887 36.1387 33.2734 36.0293 33.1211 35.9668C32.9727 35.9004 32.7891 35.8672 32.5703 35.8672C32.3438 35.8672 32.1465 35.9121 31.9785 36.002C31.8145 36.0918 31.6777 36.2168 31.5684 36.377C31.4629 36.5332 31.3828 36.7168 31.3281 36.9277C31.2734 37.1387 31.2461 37.3652 31.2461 37.6074ZM40.5801 34.6602H42.1094V40.7891C42.1094 41.3672 41.9805 41.8574 41.7227 42.2598C41.4688 42.666 41.1133 42.9727 40.6562 43.1797C40.1992 43.3906 39.668 43.4961 39.0625 43.4961C38.7969 43.4961 38.5156 43.4609 38.2188 43.3906C37.9258 43.3203 37.6445 43.2109 37.375 43.0625C37.1094 42.9141 36.8867 42.7266 36.707 42.5L37.4512 41.5039C37.6465 41.7305 37.873 41.9062 38.1309 42.0312C38.3887 42.1602 38.6738 42.2246 38.9863 42.2246C39.291 42.2246 39.5488 42.168 39.7598 42.0547C39.9707 41.9453 40.1328 41.7832 40.2461 41.5684C40.3594 41.3574 40.416 41.1016 40.416 40.8008V36.125L40.5801 34.6602ZM36.3145 37.9062V37.7832C36.3145 37.2988 36.373 36.8594 36.4902 36.4648C36.6113 36.0664 36.7812 35.7246 37 35.4395C37.2227 35.1543 37.4922 34.9336 37.8086 34.7773C38.125 34.6211 38.4824 34.543 38.8809 34.543C39.3027 34.543 39.6562 34.6211 39.9414 34.7773C40.2266 34.9336 40.4609 35.1562 40.6445 35.4453C40.8281 35.7305 40.9707 36.0684 41.0723 36.459C41.1777 36.8457 41.2598 37.2695 41.3184 37.7305V38C41.2598 38.4414 41.1719 38.8516 41.0547 39.2305C40.9375 39.6094 40.7832 39.9414 40.5918 40.2266C40.4004 40.5078 40.1621 40.7266 39.877 40.8828C39.5957 41.0391 39.2598 41.1172 38.8691 41.1172C38.4785 41.1172 38.125 41.0371 37.8086 40.877C37.4961 40.7168 37.2285 40.4922 37.0059 40.2031C36.7832 39.9141 36.6113 39.5742 36.4902 39.1836C36.373 38.793 36.3145 38.3672 36.3145 37.9062ZM38.002 37.7832V37.9062C38.002 38.168 38.0273 38.4121 38.0781 38.6387C38.1289 38.8652 38.207 39.0664 38.3125 39.2422C38.4219 39.4141 38.5566 39.5488 38.7168 39.6465C38.8809 39.7402 39.0742 39.7871 39.2969 39.7871C39.6055 39.7871 39.8574 39.7227 40.0527 39.5938C40.248 39.4609 40.3945 39.2793 40.4922 39.0488C40.5898 38.8184 40.6465 38.5527 40.6621 38.252V37.4844C40.6543 37.2383 40.6211 37.0176 40.5625 36.8223C40.5039 36.623 40.4219 36.4531 40.3164 36.3125C40.2109 36.1719 40.0742 36.0625 39.9062 35.9844C39.7383 35.9062 39.5391 35.8672 39.3086 35.8672C39.0859 35.8672 38.8926 35.918 38.7285 36.0195C38.5684 36.1172 38.4336 36.252 38.3242 36.4238C38.2188 36.5957 38.1387 36.7988 38.084 37.0332C38.0293 37.2637 38.002 37.5137 38.002 37.7832ZM46.8496 39.248C46.8496 39.127 46.8145 39.0176 46.7441 38.9199C46.6738 38.8223 46.543 38.7324 46.3516 38.6504C46.1641 38.5645 45.8926 38.4863 45.5371 38.416C45.2168 38.3457 44.918 38.2578 44.6406 38.1523C44.3672 38.043 44.1289 37.9121 43.9258 37.7598C43.7266 37.6074 43.5703 37.4277 43.457 37.2207C43.3438 37.0098 43.2871 36.7695 43.2871 36.5C43.2871 36.2344 43.3438 35.9844 43.457 35.75C43.5742 35.5156 43.7402 35.3086 43.9551 35.1289C44.1738 34.9453 44.4395 34.8027 44.752 34.7012C45.0684 34.5957 45.4238 34.543 45.8184 34.543C46.3691 34.543 46.8418 34.6309 47.2363 34.8066C47.6348 34.9824 47.9395 35.2246 48.1504 35.5332C48.3652 35.8379 48.4727 36.1855 48.4727 36.5762H46.7852C46.7852 36.4121 46.75 36.2656 46.6797 36.1367C46.6133 36.0039 46.5078 35.9004 46.3633 35.8262C46.2227 35.748 46.0391 35.709 45.8125 35.709C45.625 35.709 45.4629 35.7422 45.3262 35.8086C45.1895 35.8711 45.084 35.957 45.0098 36.0664C44.9395 36.1719 44.9043 36.2891 44.9043 36.418C44.9043 36.5156 44.9238 36.6035 44.9629 36.6816C45.0059 36.7559 45.0742 36.8242 45.168 36.8867C45.2617 36.9492 45.3828 37.0078 45.5312 37.0625C45.6836 37.1133 45.8711 37.1602 46.0938 37.2031C46.5508 37.2969 46.959 37.4199 47.3184 37.5723C47.6777 37.7207 47.9629 37.9238 48.1738 38.1816C48.3848 38.4355 48.4902 38.7695 48.4902 39.1836C48.4902 39.4648 48.4277 39.7227 48.3027 39.957C48.1777 40.1914 47.998 40.3965 47.7637 40.5723C47.5293 40.7441 47.248 40.8789 46.9199 40.9766C46.5957 41.0703 46.2305 41.1172 45.8242 41.1172C45.2344 41.1172 44.7344 41.0117 44.3242 40.8008C43.918 40.5898 43.6094 40.3223 43.3984 39.998C43.1914 39.6699 43.0879 39.334 43.0879 38.9902H44.6875C44.6953 39.2207 44.7539 39.4062 44.8633 39.5469C44.9766 39.6875 45.1191 39.7891 45.291 39.8516C45.4668 39.9141 45.6562 39.9453 45.8594 39.9453C46.0781 39.9453 46.2598 39.916 46.4043 39.8574C46.5488 39.7949 46.6582 39.7129 46.7324 39.6113C46.8105 39.5059 46.8496 39.3848 46.8496 39.248Z" fill="#455A94"/>
</svg>
